<svg width="90" height="74" viewBox="0 0 90 74" fill="none" xmlns="http://www.w3.org/2000/svg">
<path d="M8.01066 8.43164H66.0959C70.0893 8.43164 73.3566 11.6989 73.3566 15.6923V59.2562C73.3566 63.2496 70.0893 66.5169 66.0959 66.5169H8.01066C4.0173 66.5169 0.75 63.2496 0.75 59.2562V15.6923C0.75 11.6989 4.0173 8.43164 8.01066 8.43164Z" fill="#1EC5F9"/>
<path d="M15.9579 1H74.0432C78.0366 1 81.3039 4.2673 81.3039 8.26066V51.8246C81.3039 55.818 78.0366 59.0853 74.0432 59.0853H15.9579C11.9646 59.0853 8.69727 55.818 8.69727 51.8246V8.26066C8.69727 4.2673 11.9646 1 15.9579 1Z" stroke="white" stroke-width="1.37209" stroke-linecap="round" stroke-linejoin="round"/>
<path d="M81.3039 8.2605L45.0006 33.6728L8.69727 8.2605" stroke="white" stroke-width="1.37209" stroke-linecap="round" stroke-linejoin="round"/>
<path d="M61.5039 51.6529V43.7252C61.5039 41.0971 62.5479 38.5765 64.4063 36.7181C66.2648 34.8597 68.7853 33.8157 71.4135 33.8157C74.0416 33.8157 76.5622 34.8597 78.4206 36.7181C80.279 38.5765 81.323 41.0971 81.323 43.7252V51.6529" stroke="#888888" stroke-width="3.24313" stroke-linecap="round" stroke-linejoin="round"/>
<path d="M85.2868 51.6528H57.54C55.3508 51.6528 53.5762 53.4275 53.5762 55.6167V69.49C53.5762 71.6792 55.3508 73.4539 57.54 73.4539H85.2868C87.4759 73.4539 89.2506 71.6792 89.2506 69.49V55.6167C89.2506 53.4275 87.4759 51.6528 85.2868 51.6528Z" fill="#F0B861"/>
</svg>
