<svg width="278" height="241" viewBox="0 0 278 241" fill="none" xmlns="http://www.w3.org/2000/svg">
    <defs>
        <clipPath id="clip0_3771_26184">
            <rect width="278" height="241" fill="white" />
        </clipPath>
    </defs>
    <g clip-path="url(#clip0_3771_26184)">
        <path
            d="M132.715 241C206.012 241 265.431 225.586 265.431 206.571C265.431 187.557 206.012 172.143 132.715 172.143C59.4187 172.143 0 187.557 0 206.571C0 225.586 59.4187 241 132.715 241Z"
            fill="#F2F2F2" />
        <path
            d="M183.215 86.8011C195.707 86.8011 205.834 76.6599 205.834 64.1501C205.834 51.6404 195.707 41.4992 183.215 41.4992C170.723 41.4992 160.596 51.6404 160.596 64.1501C160.596 76.6599 170.723 86.8011 183.215 86.8011Z"
            fill="#1EC5F9" />
        <path
            d="M144.768 140.11C157.26 140.11 167.387 129.969 167.387 117.459C167.387 104.949 157.26 94.808 144.768 94.808C132.275 94.808 122.148 104.949 122.148 117.459C122.148 129.969 132.275 140.11 144.768 140.11Z"
            fill="#1EC5F9" />
        <path
            d="M144.915 233.966C218.211 233.966 277.63 218.552 277.63 199.538C277.63 180.523 218.211 165.109 144.915 165.109C71.6179 165.109 12.1992 180.523 12.1992 199.538C12.1992 218.552 71.6179 233.966 144.915 233.966Z"
            stroke="#3F3D56" stroke-width="2" stroke-miterlimit="10" />
        <path
            d="M46.1384 188.247C62.2677 188.247 75.3432 175.153 75.3432 159.001C75.3432 142.849 62.2677 129.755 46.1384 129.755C30.009 129.755 16.9336 142.849 16.9336 159.001C16.9336 175.153 30.009 188.247 46.1384 188.247Z"
            fill="#2F2E41" />
        <path d="M41.7014 181.953H32.8291V197.872H41.7014V181.953Z" fill="#2F2E41" />
        <path d="M59.4466 181.953H50.5742V197.872H59.4466V181.953Z" fill="#2F2E41" />
        <path
            d="M40.2227 200.833C44.3061 200.833 47.6163 199.59 47.6163 198.057C47.6163 196.523 44.3061 195.28 40.2227 195.28C36.1393 195.28 32.8291 196.523 32.8291 198.057C32.8291 199.59 36.1393 200.833 40.2227 200.833Z"
            fill="#2F2E41" />
        <path
            d="M57.9678 200.463C62.0512 200.463 65.3615 199.22 65.3615 197.687C65.3615 196.153 62.0512 194.91 57.9678 194.91C53.8845 194.91 50.5742 196.153 50.5742 197.687C50.5742 199.22 53.8845 200.463 57.9678 200.463Z"
            fill="#2F2E41" />
        <path
            d="M46.8769 161.592C52.3894 161.592 56.8583 157.117 56.8583 151.597C56.8583 146.076 52.3894 141.601 46.8769 141.601C41.3643 141.601 36.8955 146.076 36.8955 151.597C36.8955 157.117 41.3643 161.592 46.8769 161.592Z"
            fill="white" />
        <path
            d="M46.8769 154.929C48.7144 154.929 50.2041 153.437 50.2041 151.597C50.2041 149.757 48.7144 148.265 46.8769 148.265C45.0394 148.265 43.5498 149.757 43.5498 151.597C43.5498 153.437 45.0394 154.929 46.8769 154.929Z"
            fill="#3F3D56" />
        <path
            d="M17.8087 131.803C15.4506 121.227 22.9886 110.541 34.6455 107.934C46.3023 105.328 57.6637 111.788 60.0218 122.364C62.38 132.94 54.6546 136.84 42.9978 139.447C31.3409 142.053 20.1669 142.379 17.8087 131.803Z"
            fill="#1EC5F9" />
        <path
            d="M73.5291 153.168C80.9432 149.99 86.146 145.525 85.1498 143.194C84.1536 140.863 77.3357 141.55 69.9215 144.727C62.5074 147.905 57.3046 152.371 58.3008 154.701C59.297 157.032 66.1149 156.346 73.5291 153.168Z"
            fill="#2F2E41" />
        <path
            d="M18.8172 172.788C26.2313 169.611 31.4341 165.145 30.4379 162.814C29.4417 160.483 22.6238 161.17 15.2096 164.348C7.7955 167.526 2.59273 171.991 3.58892 174.322C4.58511 176.653 11.403 175.966 18.8172 172.788Z"
            fill="#2F2E41" />
        <path
            d="M63.1436 167.515C63.1436 170.378 55.7837 176.03 47.617 176.03C39.4502 176.03 31.7207 170.748 31.7207 167.886C31.7207 165.023 39.4502 165.664 47.617 165.664C55.7837 165.664 63.1436 164.653 63.1436 167.515Z"
            fill="white" />
        <path
            d="M101.516 182.683C114.008 182.683 124.135 172.542 124.135 160.032C124.135 147.522 114.008 137.381 101.516 137.381C89.0234 137.381 78.8965 147.522 78.8965 160.032C78.8965 172.542 89.0234 182.683 101.516 182.683Z"
            fill="#1EC5F9" />
        <path d="M101.495 200.995V159.907" stroke="#3F3D56" stroke-width="2"
            stroke-miterlimit="10" />
        <path
            d="M101.496 165.718C104.7 165.718 107.298 163.116 107.298 159.907C107.298 156.698 104.7 154.097 101.496 154.097C98.2911 154.097 95.6934 156.698 95.6934 159.907C95.6934 163.116 98.2911 165.718 101.496 165.718Z"
            fill="#3F3D56" />
        <path d="M101.495 185.231C101.495 185.231 100.666 167.378 83.6738 169.453L101.495 185.231Z"
            fill="#3F3D56" />
        <path d="M183.229 201.283V64.2334" stroke="#3F3D56" stroke-width="2"
            stroke-miterlimit="10" />
        <path
            d="M183.229 69.9789C186.434 69.9789 189.031 67.3774 189.031 64.1684C189.031 60.9594 186.434 58.358 183.229 58.358C180.025 58.358 177.427 60.9594 177.427 64.1684C177.427 67.3774 180.025 69.9789 183.229 69.9789Z"
            fill="#3F3D56" />
        <path
            d="M165.408 169.135C168.612 169.135 171.21 166.534 171.21 163.325C171.21 160.116 168.612 157.514 165.408 157.514C162.203 157.514 159.605 160.116 159.605 163.325C159.605 166.534 162.203 169.135 165.408 169.135Z"
            fill="#3F3D56" />
        <path d="M183.229 93.8483C183.229 93.8483 182.401 75.9955 165.408 78.0707L183.229 93.8483Z"
            fill="#3F3D56" />
        <path d="M183.229 144.459C183.229 144.459 182.401 126.606 165.408 128.681L183.229 144.459Z"
            fill="#3F3D56" />
        <path d="M183.229 199.686C183.229 199.686 186.959 164.985 165.408 163.325" stroke="#3F3D56"
            stroke-width="2" stroke-miterlimit="10" />
        <path
            d="M201.053 169.135C204.258 169.135 206.856 166.534 206.856 163.325C206.856 160.116 204.258 157.514 201.053 157.514C197.849 157.514 195.251 160.116 195.251 163.325C195.251 166.534 197.849 169.135 201.053 169.135Z"
            fill="#3F3D56" />
        <path d="M183.232 199.686C183.232 199.686 179.502 164.985 201.053 163.325" stroke="#3F3D56"
            stroke-width="2" stroke-miterlimit="10" />
        <path
            d="M201.407 114.631C204.611 114.631 207.209 112.03 207.209 108.821C207.209 105.612 204.611 103.011 201.407 103.011C198.202 103.011 195.604 105.612 195.604 108.821C195.604 112.03 198.202 114.631 201.407 114.631Z"
            fill="#3F3D56" />
        <path d="M183.586 143.331C183.586 143.331 179.855 110.481 201.407 108.821" stroke="#3F3D56"
            stroke-width="2" stroke-miterlimit="10" />
        <path d="M144.789 201.09V117.434" stroke="#3F3D56" stroke-width="2"
            stroke-miterlimit="10" />
        <path
            d="M144.789 123.244C147.993 123.244 150.591 120.643 150.591 117.434C150.591 114.225 147.993 111.623 144.789 111.623C141.584 111.623 138.986 114.225 138.986 117.434C138.986 120.643 141.584 123.244 144.789 123.244Z"
            fill="#3F3D56" />
        <path d="M144.789 141.097C144.789 141.097 143.96 123.244 126.968 125.319L144.789 141.097Z"
            fill="#3F3D56" />
        <path d="M144.789 199.493C144.789 199.493 148.519 165.162 126.968 163.502" stroke="#3F3D56"
            stroke-width="2" stroke-miterlimit="10" />
        <path
            d="M126.967 169.312C130.172 169.312 132.77 166.711 132.77 163.502C132.77 160.293 130.172 157.691 126.967 157.691C123.763 157.691 121.165 160.293 121.165 163.502C121.165 166.711 123.763 169.312 126.967 169.312Z"
            fill="#3F3D56" />
        <path d="M80.7773 201.01H200.554" stroke="#3F3D56" stroke-width="2"
            stroke-miterlimit="10" />
        <path
            d="M244.359 141.786C250.892 141.786 256.189 136.483 256.189 129.94C256.189 123.398 250.892 118.094 244.359 118.094C237.826 118.094 232.529 123.398 232.529 129.94C232.529 136.483 237.826 141.786 244.359 141.786Z"
            fill="#F2F2F2" />
        <path
            d="M58.0397 67.7465C64.5732 67.7465 69.8695 62.4427 69.8695 55.9001C69.8695 49.3576 64.5732 44.0538 58.0397 44.0538C51.5063 44.0538 46.21 49.3576 46.21 55.9001C46.21 62.4427 51.5063 67.7465 58.0397 67.7465Z"
            fill="#F2F2F2" />
        <path
            d="M177.447 23.6928C183.98 23.6928 189.277 18.389 189.277 11.8464C189.277 5.30381 183.98 0 177.447 0C170.914 0 165.617 5.30381 165.617 11.8464C165.617 18.389 170.914 23.6928 177.447 23.6928Z"
            fill="#F2F2F2" />
    </g>
</svg>
