<svg width="28" height="28" viewBox="0 0 28 28" fill="none" xmlns="http://www.w3.org/2000/svg">
<path d="M23.8312 0.665283H4.40774C2.42892 0.665283 0.824707 2.26942 0.824707 4.24829V23.6718C0.824707 25.6506 2.42886 27.2548 4.40774 27.2548H13.9873L14.0036 17.7531H11.5351C11.2143 17.7531 10.9539 17.4937 10.9527 17.1729L10.9408 14.1102C10.9396 13.7876 11.2008 13.5255 11.5233 13.5255H13.9874V10.566C13.9874 7.13167 16.0849 5.26163 19.1486 5.26163H21.6626C21.9843 5.26163 22.2451 5.52239 22.2451 5.8441V8.42665C22.2451 8.74824 21.9845 9.00894 21.6629 9.00913L20.1201 9.00985C18.454 9.00985 18.1314 9.80158 18.1314 10.9635V13.5255H21.7925C22.1413 13.5255 22.4119 13.8301 22.3708 14.1766L22.0078 17.2393C21.9731 17.5324 21.7245 17.7533 21.4294 17.7533H18.1477L18.1314 27.2549H23.8314C25.8102 27.2549 27.4143 25.6508 27.4143 23.672V4.24829C27.4143 2.26942 25.8101 0.665283 23.8312 0.665283Z" fill="#518EF8"/>
</svg>
