<svg width="246" height="158" viewBox="0 0 246 158" fill="none" xmlns="http://www.w3.org/2000/svg">
<rect x="124.777" y="109.976" width="23.217" height="41.5461" fill="#B1B1B1"/>
<rect x="26.4111" y="-0.000433922" width="219.339" height="124.027" rx="7.33167" fill="#949494"/>
<rect x="32.5205" y="6.72005" width="207.731" height="110.586" rx="4.88778" fill="black"/>
<rect x="50.2393" y="21.3839" width="171.683" height="81.8703" rx="4.88778" fill="#1EC5F9"/>
<rect x="79.5654" y="142.967" width="113.641" height="9.16459" rx="4.58229" fill="#949494"/>
<path d="M151.049 60.2025C152.678 61.1431 152.678 63.4948 151.049 64.4354L130.887 76.076C129.258 77.0167 127.221 75.8408 127.221 73.9595L127.221 50.6784C127.221 48.7971 129.258 47.6212 130.887 48.5619L151.049 60.2025Z" fill="white"/>
<rect x="43.4464" y="63.5403" width="40.6531" height="83.5335" rx="7.98216" transform="rotate(30 43.4464 63.5403)" fill="#272727" stroke="white" stroke-width="1.36111"/>
<circle cx="67.4534" cy="86.868" r="4.11479" transform="rotate(30 67.4534 86.868)" fill="#FF4F4F"/>
<circle cx="41.0755" cy="86.6434" r="4.11479" transform="rotate(30 41.0755 86.6434)" fill="#F0B861"/>
<circle cx="19.4192" cy="124.155" r="4.11479" transform="rotate(30 19.4192 124.155)" fill="#F0B861"/>
<circle cx="23.8157" cy="138.195" r="4.11479" transform="rotate(30 23.8157 138.195)" fill="#F0B861"/>
<path d="M49.5777 103.707C50.4924 103.462 51.0496 102.51 50.6335 101.66C49.9307 100.223 48.8477 98.9927 47.488 98.1111C46.1283 97.2295 44.5631 96.7427 42.9648 96.6873C42.0183 96.6545 41.3771 97.5514 41.5265 98.4866C41.676 99.4217 42.5694 100.031 43.5049 100.178C44.2536 100.296 44.9757 100.569 45.6222 100.989C46.2687 101.408 46.8133 101.955 47.2264 102.591C47.7426 103.385 48.6629 103.952 49.5777 103.707Z" fill="#F0B861"/>
<path d="M44.5116 112.482C44.7567 113.396 45.7081 113.954 46.5588 113.538C47.9955 112.835 49.2258 111.752 50.1075 110.392C50.9891 109.032 51.4759 107.467 51.5313 105.869C51.5641 104.922 50.6672 104.281 49.732 104.431C48.7969 104.58 48.188 105.473 48.0407 106.409C47.9228 107.158 47.6491 107.88 47.2299 108.526C46.8107 109.173 46.2631 109.717 45.6277 110.13C44.8337 110.647 44.2665 111.567 44.5116 112.482Z" fill="#F0B861"/>
<path d="M35.7369 107.416C34.8221 107.661 34.2649 108.612 34.681 109.463C35.3838 110.899 36.4668 112.13 37.8265 113.011C39.1862 113.893 40.7514 114.38 42.3498 114.435C43.2962 114.468 43.9375 113.571 43.788 112.636C43.6386 111.701 42.7452 111.092 41.8097 110.945C41.061 110.827 40.3388 110.553 39.6923 110.134C39.0458 109.715 38.5013 109.167 38.0882 108.532C37.572 107.738 36.6516 107.171 35.7369 107.416Z" fill="#F0B861"/>
<path d="M40.803 98.6409C40.5578 97.7261 39.6065 97.1689 38.7558 97.5851C37.3191 98.2878 36.0887 99.3708 35.2071 100.731C34.3254 102.09 33.8387 103.655 33.7833 105.254C33.7505 106.2 34.6474 106.842 35.5825 106.692C36.5177 106.543 37.1265 105.649 37.2738 104.714C37.3917 103.965 37.6654 103.243 38.0846 102.596C38.5038 101.95 39.0514 101.405 39.6868 100.992C40.4808 100.476 41.0481 99.5556 40.803 98.6409Z" fill="#F0B861"/>
<circle cx="60.9563" cy="98.1211" r="4.11479" transform="rotate(30 60.9563 98.1211)" fill="#F0B861"/>
<circle cx="42.6565" cy="105.561" r="4.11479" transform="rotate(30 42.6565 105.561)" fill="white"/>
<circle cx="39.2991" cy="135.631" r="4.11479" transform="rotate(30 39.2991 135.631)" fill="#F0B861"/>
<rect x="24.7109" y="111.956" width="25.1219" height="5.19763" rx="2.59882" transform="rotate(30 24.7109 111.956)" fill="#F0B861"/>
</svg>
