<svg width="243" height="157" viewBox="0 0 243 157" fill="none" xmlns="http://www.w3.org/2000/svg">
<rect x="121.777" y="109.976" width="23.217" height="41.5461" fill="#B1B1B1"/>
<rect x="23.4111" y="-0.000433922" width="219.339" height="124.027" rx="7.33167" fill="#949494"/>
<rect x="29.5205" y="6.99935" width="207.731" height="110.586" rx="4.88778" fill="black"/>
<rect x="76.5654" y="142.967" width="113.641" height="9.16459" rx="4.58229" fill="#949494"/>
<rect x="40.4464" y="63.5403" width="40.6531" height="83.5335" rx="7.98216" transform="rotate(30 40.4464 63.5403)" fill="#272727" stroke="white" stroke-width="1.36111"/>
<circle cx="64.4534" cy="86.868" r="4.11479" transform="rotate(30 64.4534 86.868)" fill="#FF4F4F"/>
<circle cx="38.0755" cy="86.6434" r="4.11479" transform="rotate(30 38.0755 86.6434)" fill="#F0B861"/>
<circle cx="16.4192" cy="124.155" r="4.11479" transform="rotate(30 16.4192 124.155)" fill="#F0B861"/>
<circle cx="20.8157" cy="138.195" r="4.11479" transform="rotate(30 20.8157 138.195)" fill="#F0B861"/>
<path d="M46.5777 103.707C47.4924 103.462 48.0496 102.51 47.6335 101.66C46.9307 100.223 45.8477 98.9927 44.488 98.1111C43.1283 97.2295 41.5631 96.7427 39.9648 96.6873C39.0183 96.6545 38.3771 97.5514 38.5265 98.4866V98.4866C38.676 99.4217 39.5694 100.031 40.5049 100.178C41.2536 100.296 41.9757 100.569 42.6222 100.989C43.2687 101.408 43.8133 101.955 44.2264 102.591C44.7426 103.385 45.6629 103.952 46.5777 103.707V103.707Z" fill="#F0B861"/>
<path d="M41.5116 112.482C41.7567 113.396 42.7081 113.954 43.5588 113.538C44.9955 112.835 46.2258 111.752 47.1075 110.392C47.9891 109.032 48.4759 107.467 48.5313 105.869C48.5641 104.922 47.6672 104.281 46.732 104.431V104.431C45.7969 104.58 45.188 105.473 45.0407 106.409C44.9228 107.158 44.6491 107.88 44.2299 108.526C43.8107 109.173 43.2631 109.717 42.6277 110.13C41.8337 110.647 41.2665 111.567 41.5116 112.482V112.482Z" fill="#F0B861"/>
<path d="M32.7369 107.416C31.8221 107.661 31.2649 108.612 31.681 109.463C32.3838 110.899 33.4668 112.13 34.8265 113.011C36.1862 113.893 37.7514 114.38 39.3498 114.435C40.2962 114.468 40.9375 113.571 40.788 112.636V112.636C40.6386 111.701 39.7452 111.092 38.8097 110.945C38.061 110.827 37.3388 110.553 36.6923 110.134C36.0458 109.715 35.5013 109.167 35.0882 108.532C34.572 107.738 33.6516 107.171 32.7369 107.416V107.416Z" fill="#F0B861"/>
<path d="M37.803 98.6409C37.5578 97.7261 36.6065 97.1689 35.7558 97.5851C34.3191 98.2878 33.0887 99.3708 32.2071 100.731C31.3254 102.09 30.8387 103.655 30.7833 105.254C30.7505 106.2 31.6474 106.842 32.5825 106.692V106.692C33.5177 106.543 34.1265 105.649 34.2738 104.714C34.3917 103.965 34.6654 103.243 35.0846 102.596C35.5038 101.95 36.0514 101.405 36.6868 100.992C37.4808 100.476 38.0481 99.5556 37.803 98.6409V98.6409Z" fill="#F0B861"/>
<circle cx="57.9563" cy="98.1211" r="4.11479" transform="rotate(30 57.9563 98.1211)" fill="#F0B861"/>
<circle cx="39.6565" cy="105.561" r="4.11479" transform="rotate(30 39.6565 105.561)" fill="white"/>
<circle cx="36.2991" cy="135.631" r="4.11479" transform="rotate(30 36.2991 135.631)" fill="#F0B861"/>
<rect x="21.7109" y="111.956" width="25.1219" height="5.19763" rx="2.59882" transform="rotate(30 21.7109 111.956)" fill="#F0B861"/>
<circle cx="133" cy="62" r="34" fill="white"/>
<path d="M114 55C115.5 57.5 119.4 61 123 55" stroke="#686868" stroke-width="2" stroke-linecap="round"/>
<path d="M122 77C125.667 74.7361 135.2 71.5667 144 77" stroke="#686868" stroke-width="2" stroke-linecap="round"/>
<path d="M142 55C143.5 57.5 147.4 61 151 55" stroke="#686868" stroke-width="2" stroke-linecap="round"/>
</svg>
