<svg width="27" height="27" viewBox="0 0 27 27" fill="none" xmlns="http://www.w3.org/2000/svg">
<path d="M5.89282 16.3778L4.96728 19.833L1.58442 19.9045C0.573443 18.0294 0 15.884 0 13.6041C0 11.3995 0.536155 9.32057 1.48653 7.48999H1.48725L4.49894 8.04214L5.81825 11.0358C5.54212 11.8408 5.39162 12.7049 5.39162 13.6041C5.39172 14.5801 5.5685 15.5151 5.89282 16.3778Z" fill="#FBBB00"/>
<path d="M26.3572 11.1206C26.5098 11.9248 26.5895 12.7554 26.5895 13.6042C26.5895 14.5561 26.4894 15.4845 26.2987 16.3801C25.6515 19.4277 23.9605 22.0888 21.6178 23.972L21.6171 23.9713L17.8237 23.7777L17.2868 20.4262C18.8413 19.5146 20.0561 18.088 20.696 16.3801H13.5869V11.1206H20.7997H26.3572Z" fill="#518EF8"/>
<path d="M21.6178 23.9712L21.6185 23.9719C19.3401 25.8032 16.4459 26.8989 13.2954 26.8989C8.23237 26.8989 3.83049 24.0691 1.58496 19.9046L5.89336 16.3778C7.0161 19.3742 9.90663 21.5073 13.2954 21.5073C14.7519 21.5073 16.1165 21.1135 17.2874 20.4261L21.6178 23.9712Z" fill="#28B446"/>
<path d="M21.7807 3.37004L17.4737 6.89608C16.2619 6.13858 14.8293 5.701 13.2946 5.701C9.82919 5.701 6.88459 7.93188 5.8181 11.0357L1.48706 7.48998H1.48633C3.69898 3.22395 8.15638 0.309326 13.2946 0.309326C16.5204 0.309326 19.4782 1.45839 21.7807 3.37004Z" fill="#F14336"/>
</svg>
