<svg width="28" height="28" viewBox="0 0 28 28" fill="none" xmlns="http://www.w3.org/2000/svg">
<path d="M23.8317 0.665283H4.40823C2.42941 0.665283 0.825195 2.26942 0.825195 4.24829V23.6718C0.825195 25.6506 2.42935 27.2548 4.40823 27.2548H13.9878L14.0041 17.7531H11.5356C11.2148 17.7531 10.9544 17.4937 10.9532 17.1729L10.9413 14.1102C10.9401 13.7876 11.2013 13.5255 11.5238 13.5255H13.9879V10.566C13.9879 7.13167 16.0854 5.26163 19.1491 5.26163H21.6631C21.9848 5.26163 22.2456 5.52239 22.2456 5.8441V8.42665C22.2456 8.74824 21.985 9.00894 21.6634 9.00913L20.1206 9.00985C18.4545 9.00985 18.1319 9.80158 18.1319 10.9635V13.5255H21.7929C22.1418 13.5255 22.4124 13.8301 22.3713 14.1766L22.0083 17.2393C21.9736 17.5324 21.725 17.7533 21.4299 17.7533H18.1482L18.1319 27.2549H23.8319C25.8107 27.2549 27.4148 25.6508 27.4148 23.672V4.24829C27.4148 2.26942 25.8106 0.665283 23.8317 0.665283Z" fill="#518EF8"/>
</svg>
