<svg width="120" height="45" viewBox="0 0 120 45" fill="none" xmlns="http://www.w3.org/2000/svg">
<g clip-path="url(#clip0_7242_31550)">
<path d="M55.6242 9.63371C55.9602 12.875 52.8477 13.9039 50.4209 12.7322C48.5687 11.8394 46.6774 11.2578 44.595 11.4891C40.8072 11.9091 38.5253 14.9957 39.5776 18.288C40.2904 20.5175 42.9083 22.4409 45.3403 22.5582C47.1532 22.6466 48.8211 22.1688 50.426 21.3865C50.6801 21.2623 50.9291 21.1093 51.1985 21.0345C51.7528 20.8831 52.2269 21.0413 52.5032 21.5616C52.7931 22.1058 52.7232 22.6789 52.1979 22.9969C46.6518 26.3505 40.5599 25.1414 37.7817 19.8917C35.962 16.4531 37.56 11.1693 42.0863 9.73575C45.0913 8.78342 47.9633 9.08442 50.7773 10.3837C51.2685 10.6098 51.746 10.8666 52.302 10.8887C52.6755 10.9041 53.0643 10.9092 53.269 10.5163C53.4668 10.1371 53.2911 9.79187 53.0677 9.49426C52.8989 9.27149 52.7011 9.04021 52.464 8.90416C49.1929 7.02501 45.7274 6.1254 42.0078 7.24269C36.4378 8.91436 33.7432 14.3937 35.5749 20.1178C36.9256 24.337 39.9903 26.427 44.2386 26.9491C46.7183 27.2535 49.1639 27.0631 51.4868 25.9798C52.7062 25.4118 53.9512 25.4237 54.9727 26.4151C56.0199 27.4321 56.2433 28.7313 55.9022 30.1071C55.7044 30.9064 55.0409 31.3366 54.3519 31.7108C51.4254 33.3008 48.2583 33.9198 44.9787 33.7107C38.6788 33.3093 33.692 30.551 30.3152 25.1363C29.3005 23.5088 28.6609 21.7249 28.3403 19.8338C28.2925 19.5533 28.2618 19.2727 28.0879 19.038C28.1084 17.7489 28.1288 16.4548 28.1493 15.1606C28.5808 13.2322 29.0464 11.3173 30.0355 9.57249C30.2845 9.13374 30.6427 8.74601 30.7228 8.21882C31.6114 7.45186 32.2509 6.46381 33.0354 5.60502C37.913 1.13927 43.6127 -0.362352 50.0695 0.965808C51.4032 1.2396 52.7062 1.65115 53.9102 2.31778C53.6442 3.06774 53.6953 3.85001 53.6698 4.62378C53.4088 4.51664 53.1445 4.4129 52.8852 4.29896C48.33 2.29057 43.744 2.20554 39.1717 4.19012C33.634 6.59306 30.2061 11.8054 30.3937 17.6571C30.5216 21.6603 32.2833 24.9458 35.2883 27.5749C40.0261 31.7193 47.305 32.6767 52.9415 29.9286C53.6101 29.602 53.9239 29.1633 53.6374 28.4422C53.3287 27.6651 52.7607 27.898 52.2201 28.131C49.1708 29.4439 46.0174 29.5867 42.7872 29.0136C35.73 27.7637 31.1253 20.4546 33.0678 13.5587C34.8637 7.18316 41.1568 3.42996 47.774 4.74962C50.3083 5.2547 52.6294 6.22233 54.7595 7.66783C55.191 8.26134 55.5867 8.86845 55.6242 9.63371Z" fill="#41B450"/>
<path d="M55.6201 9.61938C55.5843 8.85531 55.1874 8.25084 54.7547 7.65996C54.5401 6.59366 54.162 5.58678 53.668 4.62065C53.6952 3.84809 53.6441 3.06704 53.9082 2.31825C54.8144 1.18403 55.9165 0.408074 57.441 0.436939C58.7493 0.46071 59.7713 1.02442 60.2925 2.23166C61.9483 6.07578 63.5648 9.93689 65.1796 13.798C65.4948 14.5485 65.2461 15.1801 64.6158 15.4314C63.9787 15.6861 63.4013 15.4093 63.0759 14.6419C61.5412 11.0236 60.0166 7.40017 58.492 3.77848C58.2433 3.18759 58.01 2.60181 57.1821 2.72576C56.2776 2.86159 55.8415 3.60359 56.1805 4.5799C56.4973 5.4866 56.8925 6.36613 57.2588 7.25585C59.0848 11.7027 60.9109 16.1496 62.7369 20.5982C62.8426 20.8546 62.8749 21.2638 63.156 21.2825C63.4967 21.3046 63.5818 20.8784 63.7266 20.6186C67.2323 14.3447 70.7277 8.06577 74.2299 1.7885C75.2076 0.036225 77.015 -0.479947 78.8001 0.469199C80.4746 1.36062 80.9975 3.12138 80.0487 4.89232C75.9214 12.5993 71.777 20.2977 67.6394 27.9995C67.4656 28.3238 67.2868 28.6447 67.1181 28.9725C66.694 29.7976 66.8405 30.4208 67.5559 30.8707C68.1913 31.2698 68.8829 31.1254 69.3683 30.3461C70.2064 29.003 71.0036 27.6311 71.7531 26.2371C74.5535 21.0278 77.25 15.7659 79.9091 10.4836C80.1578 9.99123 80.4065 9.5158 81.035 9.44958C81.9719 9.3511 82.5545 10.268 82.0997 11.1968C81.2803 12.8726 80.4303 14.5366 79.5718 16.1938C76.9468 21.2689 74.4138 26.395 71.4789 31.3054C70.2541 33.3531 68.1606 33.9372 66.3397 32.8064C64.6226 31.7401 64.0929 29.7926 65.0485 28.0131C69.3189 20.0617 73.5928 12.1119 77.8616 4.16221C78.422 3.11968 78.2891 2.59841 77.4238 2.35051C76.7799 2.16544 76.4477 2.48295 76.1496 3.0229C73.6695 7.50375 71.1671 11.9727 68.6716 16.4451C67.1829 19.1142 65.6924 21.7817 64.2087 24.4542C63.9225 24.9704 63.6142 25.4374 62.9277 25.3881C62.2481 25.3389 62.0011 24.8431 61.7762 24.2946C59.8837 19.661 57.9827 15.0307 56.0732 10.4038C55.9625 10.1254 55.9454 9.77729 55.6201 9.61938Z" fill="#0B71EC"/>
<path d="M6.79623 7.26278C6.79623 8.71849 6.81158 10.1759 6.79281 11.6316C6.72286 17.4868 6.6495 23.3436 6.56419 29.1988C6.5386 30.9653 5.78959 32.1611 4.45365 32.6605C2.12644 33.5302 0.00395679 32.2155 -0.113769 29.6778C-0.233201 27.0806 -0.153012 24.4749 -0.144482 21.8709C-0.12742 16.1279 -0.0984135 10.3831 -0.0762329 4.64011C-0.0745268 4.10334 -0.0659962 3.56488 -0.265618 3.0485C-0.417468 2.65612 -0.642682 2.33508 -1.0914 2.29601C-1.53501 2.25694 -1.85236 2.52872 -2.07416 2.86845C-2.42734 3.41031 -2.46487 4.0337 -2.46829 4.66389C-2.51094 13.4067 -2.56042 22.1495 -2.60819 30.8923C-2.6099 31.2592 -2.60819 31.6295 -2.63549 31.9947C-2.68497 32.6385 -3.09616 32.9731 -3.69844 32.9986C-4.34849 33.0257 -4.76821 32.6673 -4.86717 32.01C-4.9047 31.7603 -4.88593 31.5021 -4.88593 31.2473C-4.83304 22.3075 -4.77674 13.3659 -4.73067 4.42608C-4.72385 3.19288 -4.44745 2.0684 -3.59948 1.13756C-2.69692 0.14726 -1.55549 -0.234929 -0.277563 0.143863C1.1488 0.566819 1.8688 1.68111 2.0889 3.08757C2.21174 3.86554 2.21174 4.66559 2.20833 5.45714C2.17933 13.0687 2.13667 20.6785 2.10084 28.29C2.09914 28.769 2.07013 29.2531 2.21004 29.7236C2.35847 30.2213 2.62123 30.6205 3.19279 30.6273C3.76436 30.6341 4.03394 30.2485 4.18408 29.7457C4.32399 29.2752 4.31546 28.7962 4.32057 28.3155C4.41953 20.14 4.52361 11.9646 4.61574 3.7891C4.62257 3.12834 4.67546 2.50834 5.42788 2.29262C6.15641 2.08369 6.57442 2.51683 6.96002 3.07228C9.2224 6.32854 11.5036 9.5712 13.7779 12.819C14.3682 13.6615 14.3665 13.6598 14.9517 12.8427C17.2755 9.59498 19.601 6.35062 21.9214 3.10116C22.191 2.72237 22.4708 2.36396 22.9793 2.33168C23.4416 2.30281 23.8272 2.48116 24.0507 2.89053C24.3271 3.39502 24.1941 3.86044 23.8665 4.31228C22.4572 6.26399 21.0598 8.2242 19.6591 10.181C18.2736 12.114 16.8917 14.0505 15.4994 15.9801C14.7299 17.0451 13.9656 17.0468 13.2183 15.9835C11.1674 13.067 9.12345 10.1453 7.07775 7.22541C6.98391 7.2356 6.89007 7.24919 6.79623 7.26278Z" fill="#DE0909"/>
<path d="M28.2227 15.1182C28.2023 16.4095 28.1836 17.6992 28.1614 18.9871C28.1308 22.5166 28.0984 26.0495 28.0695 29.5824C28.049 31.9885 26.0581 33.4954 23.7437 32.8506C22.3284 32.4569 21.4973 31.1995 21.4854 29.3516C21.4547 24.8854 21.4411 20.4193 21.4224 15.9531C21.4207 15.6527 21.4224 15.3524 21.2521 14.9723C21.0681 15.1946 20.8774 15.4135 20.702 15.6426C18.8575 18.0436 17.0182 20.4481 15.1738 22.8492C14.3733 23.8911 13.6717 23.9046 12.8678 22.8746C11.1596 20.6907 9.46165 18.4984 7.76708 16.3043C7.26297 15.651 7.28171 14.996 7.78752 14.5684C8.32058 14.1188 9.03247 14.2341 9.55361 14.8959C10.882 16.5877 12.2138 18.2761 13.4996 19.9984C13.8999 20.5346 14.0906 20.5584 14.5079 20.0035C16.7696 16.9967 19.0721 14.0186 21.3593 11.0321C21.6727 10.6232 21.9725 10.2159 22.5822 10.2516C23.2787 10.2923 23.6585 10.7267 23.6636 11.587C23.6892 15.2336 23.7045 18.8802 23.7266 22.5268C23.7402 24.8447 23.7573 27.1626 23.7675 29.4806C23.7709 30.161 24.0025 30.6497 24.7706 30.6786C25.4706 30.704 25.7976 30.3188 25.8027 29.4415C25.8248 25.739 25.8316 22.0347 25.8538 18.3321C25.8827 13.4705 25.9083 8.60731 25.956 3.74576C25.973 2.01495 26.8858 0.876348 28.4918 0.48437C30.137 0.0839076 31.9252 0.813564 32.6916 2.17615C33.1361 2.9652 33.0237 3.81873 33.0476 4.65868C33.0561 4.96751 33.085 5.27634 33.1038 5.58517C32.3204 6.4421 31.6817 7.42798 30.7944 8.19497C30.7893 6.72547 30.7978 5.25598 30.7757 3.78818C30.7637 3.03477 30.2562 2.62752 29.4013 2.64789C28.6758 2.66485 28.2142 2.9652 28.2176 3.76782C28.2227 4.84194 28.204 5.91607 28.2057 6.98849C28.2074 9.6967 28.2159 12.4083 28.2227 15.1182Z" fill="#DE0A0A"/>
<path d="M97.8023 22.5108C99.3334 22.5108 100.865 22.5267 102.394 22.5006C102.871 22.4926 103.048 22.563 102.884 23.0814C102.454 24.4326 102.053 25.7928 101.672 27.1576C101.565 27.54 101.347 27.5967 101.002 27.5955C98.5914 27.5876 96.1805 27.5706 93.7696 27.6001C90.6454 27.6375 88.5113 29.3631 87.8015 32.3672C87.11 35.2976 88.6492 38.3437 91.415 39.5201C93.9913 40.6161 97.1982 39.561 98.619 37.1649C98.8625 36.7554 98.7649 36.6476 98.3123 36.6601C97.5669 36.6817 96.8203 36.6714 96.0737 36.6624C95.9393 36.6612 95.736 36.7316 95.697 36.5149C95.6683 36.3504 95.8428 36.3107 95.9497 36.2437C96.6124 35.8308 97.2855 35.4314 97.9436 35.0117C98.6247 34.5783 98.6133 34.1381 97.9206 33.7411C97.2924 33.3803 96.656 33.0331 96.0289 32.6712C95.8899 32.5907 95.6487 32.5453 95.7027 32.3354C95.7487 32.1596 95.9657 32.2265 96.1082 32.2254C97.6197 32.214 99.1313 32.2163 100.643 32.2016C100.976 32.1982 101.086 32.273 100.975 32.6259C100.079 35.4814 100.42 38.1871 102.06 40.7079C102.304 41.0812 102.091 41.2559 101.878 41.4726C99.4402 43.9356 96.4746 45.112 92.9943 44.9611C88.5515 44.7683 84.5211 41.83 82.982 37.7095C80.5355 31.1567 84.5096 24.1433 91.4449 22.7717C92.1225 22.6378 92.8071 22.5732 93.4951 22.5675C94.9297 22.5573 96.3654 22.5641 97.8 22.5641C97.8023 22.5471 97.8023 22.5289 97.8023 22.5108Z" fill="#1EC5F9"/>
<path d="M110.836 26.4561C115.922 26.4595 120.008 30.5168 120 35.5574C119.992 40.6061 115.87 44.6475 110.74 44.6372C105.716 44.6259 101.599 40.5357 101.593 35.5495C101.587 30.4986 105.7 26.4527 110.836 26.4561ZM110.789 39.6568C113.11 39.6658 114.956 37.8626 114.966 35.579C114.976 33.2614 113.12 31.3945 110.812 31.4036C108.521 31.4116 106.631 33.2546 106.61 35.4984C106.59 37.7808 108.467 39.6477 110.789 39.6568Z" fill="#1EC5F9"/>
<path d="M91.6314 34.433C91.6314 33.5691 91.6245 32.7053 91.6337 31.8415C91.6394 31.2674 91.8854 31.1107 92.3832 31.3859C93.7781 32.1572 95.1684 32.9365 96.5495 33.7327C97.077 34.0372 97.0805 34.5762 96.5644 34.8954C95.1775 35.7536 93.7815 36.5982 92.3832 37.4384C91.938 37.7057 91.6497 37.55 91.6394 37.0245C91.6211 36.1607 91.6348 35.2968 91.6348 34.433C91.6325 34.433 91.6325 34.433 91.6314 34.433Z" fill="#1EC5F9"/>
</g>
<defs>
<clipPath id="clip0_7242_31550">
<rect width="120" height="45" fill="white"/>
</clipPath>
</defs>
</svg>
